<svg xmlns="http://www.w3.org/2000/svg" width="250.421" height="162.457">
    <title>
        Coffee cup icon
    </title>
    <g transform="translate(0 -79.756)">
        <title>
            Layer 1
        </title>
        <path d="M204.43 105.526c-25.287 5.149-45.991 30.07-45.991 55.356s20.704 41.775 45.99 36.626c25.287-5.149 45.992-30.07 45.992-55.356s-20.705-41.775-45.991-36.626zm0 19.078c14.976-3.05 26.913 6.457 26.913 21.433 0 14.976-11.937 29.344-26.913 32.393-14.977 3.05-26.913-6.457-26.913-21.433 0-14.976 11.936-29.343 26.913-32.393z" fill="#1976d2"/>
        <path d="M32.045 79.756c1.443 32.132 10.558 116.434 31.593 136.87h107.567c21.036-20.436 30.151-104.738 31.593-136.87H32.045z" fill="#42a5f5" fill-rule="evenodd"/>
        <path d="M0 216.213c5.971 13.715 26.254 23.538 38.187 26h158.438c11.934-2.462 32.248-12.285 38.219-26H0z" fill="#ff5722" fill-rule="evenodd"/>
    </g>
</svg>
