<svg xmlns="http://www.w3.org/2000/svg" width="85.546" height="73.063" viewBox="0 0 80.199641 68.496687">
    <path d="M77.1 0h-74C1.4 0 0 1.4 0 3.1v46.2c0 1.7 1.4 3.1 3.1 3.1h74c1.7 0 3.1-1.4 3.1-3.1V3.1c0-1.8-1.4-3.1-3.1-3.1z" class="st0" fill="#cfd8dc"/>
    <path d="M80.2 45.5V3.1c0-1.7-1.4-3.1-3.1-3.1h-74C1.4 0 0 1.4 0 3.1v42.5h80.2z" class="st1" fill="#263238"/>
    <path class="st2" d="M3.2 2.5h73.9v39.9H3.2z" fill="#fff"/>
    <path class="st3" d="M32.6 52.3h15v7.3h-15z" fill="#90a4ae"/>
    <path d="M28.76 59.587c-2.77 0-5 2.23-5 5v3.91c.077-.003.155-.011.234-.011H56.44v-3.9c0-2.77-2.23-5-5-5H28.759z" fill="#cfd8dc"/>
</svg>
