<svg xmlns="http://www.w3.org/2000/svg" viewBox="0 0 168.80839 173.56401" width="168.809" height="173.565">
    <path d="M105.082 164.342a2.987 2.987 0 0 1-2.988-2.987v-51.778a2.987 2.987 0 0 1 5.975 0v51.778a2.987 2.987 0 0 1-2.987 2.987zM49.32 152.393a2.987 2.987 0 0 1-2.112-5.1l39.83-39.828a2.987 2.987 0 1 1 4.224 4.224l-39.83 39.83a2.976 2.976 0 0 1-2.111.874zM160.843 152.393c-.765 0-1.53-.291-2.112-.874l-39.83-39.83a2.987 2.987 0 1 1 4.224-4.224l39.83 39.829a2.987 2.987 0 0 1-2.112 5.1z" fill="#90a4ae"/>
    <path fill="#42a5f5" d="M41.355 3.468h127.454v104.101H41.355z"/>
    <path fill="#cfd8dc" d="M61.269 95.637h87.625v15.932H61.269z"/>
    <path d="M152.877 24.923h-95.59a2.987 2.987 0 0 0-2.988 2.987v47.795a2.987 2.987 0 0 0 2.988 2.987h95.59a2.987 2.987 0 0 0 2.987-2.987V27.91a2.987 2.987 0 0 0-2.987-2.987zM60.274 72.718v-41.82h89.616v41.82H60.273z" fill="#f8f8f9"/>
    <g transform="matrix(1.42753 0 0 1.42753 16.137 89.34)">
        <path d="M3.6 7.8h15.1V59H3.6z" fill="#1976d2"/>
        <path d="M6.3 12.3h9.8V28H6.3z" fill="#fff"/>
        <path d="M7.8 14.1h6.7v1H7.8zm0 2.8h6.7v1H7.8zm0 2.7h6.7v1H7.8zm0 2.7h6.7v1H7.8zm0 2.8h6.7v1H7.8z" fill="#90a4ae"/>
        <circle cx="11.1" cy="51.7" r="3.6" fill="#cfd8dc"/>
        <circle cx="11.1" cy="51.7" r="2.1" fill="#546e7a"/>
    </g>
    <g transform="matrix(1.42753 0 0 1.42753 -29.978 89.34)">
        <path d="M21 7.8h15.1V59H21z" fill="#ff5722"/>
        <path d="M23.7 12.3h9.8V28h-9.8z" fill="#fff"/>
        <path d="M25.2 14.1h6.7v1h-6.7zm0 2.8h6.7v1h-6.7zm0 2.7h6.7v1h-6.7zm0 2.7h6.7v1h-6.7zm0 2.8h6.7v1h-6.7z" fill="#90a4ae"/>
        <circle cx="28.5" cy="51.7" r="3.6" fill="#cfd8dc"/>
        <circle cx="28.5" cy="51.7" r="2.1" fill="#546e7a"/>
    </g>
    <g transform="matrix(1.42753 0 0 1.42753 58.423 89.34)">
        <path d="M3.6 7.8h15.1V59H3.6z" fill="#1976d2"/>
        <path d="M6.3 12.3h9.8V28H6.3z" fill="#fff"/>
        <path d="M7.8 14.1h6.7v1H7.8zm0 2.8h6.7v1H7.8zm0 2.7h6.7v1H7.8zm0 2.7h6.7v1H7.8zm0 2.8h6.7v1H7.8z" fill="#90a4ae"/>
        <circle r="3.6" cy="51.7" cx="11.1" fill="#cfd8dc"/>
        <circle r="2.1" cy="51.7" cx="11.1" fill="#546e7a"/>
    </g>
    <g transform="matrix(1.42753 0 0 1.42753 12.308 89.34)">
        <path d="M21 7.8h15.1V59H21z" fill="#ff5722"/>
        <path d="M23.7 12.3h9.8V28h-9.8z" fill="#fff"/>
        <path d="M25.2 14.1h6.7v1h-6.7zm0 2.8h6.7v1h-6.7zm0 2.7h6.7v1h-6.7zm0 2.7h6.7v1h-6.7zm0 2.8h6.7v1h-6.7z" fill="#90a4ae"/>
        <circle r="3.6" cy="51.7" cx="28.5" fill="#cfd8dc"/>
        <circle r="2.1" cy="51.7" cx="28.5" fill="#546e7a"/>
    </g>
    <path d="M83.377 55.091l11.757 11.757a2.987 2.987 0 0 0 4.224 0l27.428-27.428-4.816-3.63-24.723 24.722-8.715-8.715z" fill="#f8f8f9"/>
    <path fill="#cfd8dc" d="M59.674 0h90.816v7.421H59.674z"/>
</svg>
