<svg xmlns="http://www.w3.org/2000/svg" width="319" height="112" viewBox="0 0 319 112">
    <path fill="#232447" d="M0 0h319v112H0z"/>
    <path fill="#4e9bd4" d="M24 10h42.669v22H24zm52.873 0h67.713v22H76.873zm77.917 0h42.669v22H154.79zm52.872 0H293v22h-85.338zM24 74.5h31.538v22H24zm42.669 0h63.076v22H66.669zm71.888 0h42.669v22h-42.669z"/>
    <path fill="none" stroke="#FFF" stroke-miterlimit="10" d="M296.276 17a7.26 7.26 0 0 1 2.916.623"/>
    <path fill="none" stroke="#FFF" stroke-miterlimit="10" stroke-dasharray="6.0678,6.0678" d="M303.817 21.466c2.089 2.657 3.208 5.514 3.208 5.514s25.405 34.477-170.511 31.755c0 0-127.032-11.428-127.604 17.591"/>
    <path fill="none" stroke="#FFF" stroke-miterlimit="10" d="M9.273 79.323c.171.679.404 1.376.702 2.094l.678.405"/>
    <path fill="#FFF" d="M6.854 85.066l9.961.434-4.604-8.845z"/>
</svg>
