<svg xmlns="http://www.w3.org/2000/svg" width="319" height="377" viewBox="0 0 319 377">
    <path fill="#232447" d="M0 24h148.895v98H0z"/>
    <path fill="#4e9bd4" d="M0 24h29.547v48.5H0zm39.119 0h29.547v59.5H39.119zm40.236 0h29.547v29.75H79.355zm39.992 0h29.547v48.5h-29.547z"/>
    <text transform="translate(8 19)" fill="#34495e" font-family="'Source Sans Pro'" font-size="16">
        items-start
    </text>
    <path fill="#232447" d="M0 155h148.895v98H0z"/>
    <path fill="#4e9bd4" d="M0 178.281h29.547v48.5H0zm39.119-5.5h29.547v59.5H39.119zm40.236 14.875h29.547v29.75H79.355zm39.992-9.375h29.547v48.5h-29.547z"/>
    <text transform="translate(8 150)" fill="#34495e" font-family="'Source Sans Pro'" font-size="16">
        items-center
    </text>
    <path fill="#232447" d="M0 279h308.395v98H0z"/>
    <path fill="#4e9bd4" d="M0 287.406h64v68.875H0zm70.121 6.156h64V337h-64zm72.152-7.156H221V350h-78.727zm86.766 3.641h78.727V367h-78.727z"/>
    <text transform="translate(8 274)" fill="#34495e" font-family="'Source Sans Pro'" font-size="16">
        items-baseline
    </text>
    <path fill="#232447" d="M159.5 155h148.895v98H159.5z"/>
    <path fill="#4e9bd4" d="M159.5 154.031h29.547V253H159.5zm39.119.969h29.547v98h-29.547zm40.236 0h29.547v98h-29.547zm39.993 0h29.547v98h-29.547z"/>
    <text transform="translate(167.5 150)" fill="#34495e" font-family="'Source Sans Pro'" font-size="16">
        items-stretch
    </text>
    <path fill="#232447" d="M159.5 24h148.895v98H159.5z"/>
    <path fill="#4e9bd4" d="M159.5 73.5h29.547V122H159.5zm39.119-11h29.547V122h-29.547zm40.236 29.75h29.547V122h-29.547zm39.993-18.75h29.547V122h-29.547z"/>
    <text transform="translate(167.5 19)" fill="#34495e" font-family="'Source Sans Pro'" font-size="16">
        items-end
    </text>
    <text transform="translate(5 308)" font-family="'Source Sans Pro'" font-size="13">
        text text
    </text>
    <text transform="translate(243 308)" font-family="'Source Sans Pro'" font-size="13">
        text text
    </text>
    <text transform="translate(81.666 308.73)" font-family="'Source Sans Pro'" font-size="10">
        text text
    </text>
    <text transform="translate(149.197 307.272)" font-family="'Source Sans Pro'" font-size="16">
        text text
    </text>
    <path fill="none" stroke="#fff" stroke-miterlimit="10" d="M0 308h308.395"/>
</svg>
