<svg xmlns="http://www.w3.org/2000/svg" viewBox="50 39.5 372 248.7" width="400" height="268">
    <path fill="#232447" d="M63.5 56.1h341v31.8h-341z"/>
    <path fill="#4e9bd4" d="M69.3 59.4h44.4v25H69.3zm50.5 0h71.3v25h-71.3zm176.3 0h102.2v25H296.1zm-98.7 0h44.4v25h-44.4zm49.7.1h44.4v25h-44.4z"/>
    <path fill="#232447" d="M63.5 102.1h341v31.8h-341z"/>
    <path fill="#4e9bd4" d="M69.3 105.4h44.4v25H69.3zm100.2 0h71.3v25h-71.3zm-49.7 0h44.4v25h-44.4zm126 0h35.5v25h-35.5z"/>
    <path fill="#232447" d="M63.5 147.5H175v125.3H63.5z"/>
    <text transform="translate(87 75.5)" fill="#FFF" font-family="'Source Sans Pro'" font-size="12">
        1
    </text>
    <text transform="translate(85 121.833)" fill="#FFF" font-family="'Source Sans Pro'" font-size="12">
        -1
    </text>
    <text transform="translate(138.333 121.833)" fill="#FFF" font-family="'Source Sans Pro'" font-size="12">
        1
    </text>
    <text transform="translate(202.333 121.834)" fill="#FFF" font-family="'Source Sans Pro'" font-size="12">
        2
    </text>
    <text transform="translate(260.667 121.834)" fill="#FFF" font-family="'Source Sans Pro'" font-size="12">
        5
    </text>
    <text transform="translate(151.667 75.5)" fill="#FFF" font-family="'Source Sans Pro'" font-size="12">
        1
    </text>
    <text transform="translate(214.667 75.5)" fill="#FFF" font-family="'Source Sans Pro'" font-size="12">
        1
    </text>
    <text transform="translate(264.666 75.5)" fill="#FFF" font-family="'Source Sans Pro'" font-size="12">
        2
    </text>
    <text transform="translate(347.24 75.5)" fill="#FFF" font-family="'Source Sans Pro'" font-size="12">
        3
    </text>
    <path fill="#4e9bd4" d="M71.3 156.4h94.9v25H71.3zm0 33h94.9v25H71.3zm0 33.6h94.9v41.5H71.3z"/>
    <text transform="translate(113.667 172.834)" fill="#FFF" font-family="'Source Sans Pro'" font-size="12">
        2
    </text>
    <text transform="translate(113.667 205.834)" fill="#FFF" font-family="'Source Sans Pro'" font-size="12">
        2
    </text>
    <text transform="translate(111.667 246.834)" fill="#FFF" font-family="'Source Sans Pro'" font-size="12">
        99
    </text>
</svg>
