<svg xmlns="http://www.w3.org/2000/svg" width="319" height="377" viewBox="35 -63 319 377">
    <path fill="#232447" d="M35-39h319V6H35z"/>
    <path fill="#4e9bd4" d="M35-27.5h52.9v22H35zm63.1 0H125v22H98.1zm37.7 0H232v22h-96.2z"/>
    <path fill="#232447" d="M35 35h319v45H35z"/>
    <path fill="#4e9bd4" d="M157 46.5h52.9v22H157zm63.1 0H247v22h-26.9zm37.7 0H354v22h-96.2z"/>
    <text transform="translate(43 -44)" fill="#34495e" font-family="'Source Sans Pro'" font-size="16">
        justify-start
    </text>
    <text transform="translate(43 30)" fill="#34495e" font-family="'Source Sans Pro'" font-size="16">
        justify-end
    </text>
    <path fill="#232447" d="M35 110h319v45H35z"/>
    <path fill="#4e9bd4" d="M94.4 121.5h52.9v22H94.4zm63.1 0h26.9v22h-26.9zm37.7 0h96.2v22h-96.2z"/>
    <text transform="translate(43 105)" fill="#34495e" font-family="'Source Sans Pro'" font-size="16">
        justify-center
    </text>
    <path fill="#232447" d="M35.7 185h319v45h-319z"/>
    <path fill="#4e9bd4" d="M35 196.5h52.9v22H35zm127.2 0h26.9v22h-26.9zm95.6 0H354v22h-96.2z"/>
    <text transform="translate(43.684 180)" fill="#34495e" font-family="'Source Sans Pro'" font-size="16">
        justify-between
    </text>
    <path fill="#232447" d="M36 261h319v45H36z"/>
    <path fill="#4e9bd4" d="M58 272.5h52.9v22H58zm100.5 0h26.9v22h-26.9zm77.6 0h96.2v22h-96.2z"/>
    <text transform="translate(44.025 256)" fill="#34495e" font-family="'Source Sans Pro'" font-size="16">
        justify-around
    </text>
</svg>
