<svg xmlns="http://www.w3.org/2000/svg" width="319" height="85" viewBox="0 0 319 85">
    <path fill="#4e9bd4" d="M12 7h18v18H12zm0 25h18v18H12zm0 25h18v18H12zM76 7h18v18H76zm0 25h18v18H76zm0 25h18v18H76zm118 0h18v18h-18zm-25 0h18v18h-18zm-25 0h18v18h-18zm146 0h18v18h-18zm-25 0h18v18h-18zm-25 0h18v18h-18z"/>
    <path fill="none" stroke="#232447" stroke-width="5" stroke-miterlimit="10" d="M45 68V25.888"/>
    <path fill="#232447" d="M35.889 27.109h18.222L45 18z"/>
    <path fill="none" stroke="#232447" stroke-width="5" stroke-miterlimit="10" d="M109 18v42.112"/>
    <path fill="#232447" d="M118.111 58.891H99.889L109 68z"/>
    <path fill="none" stroke="#232447" stroke-width="5" stroke-miterlimit="10" d="M153.001 43h42.112"/>
    <path fill="#232447" d="M193.892 33.889v18.222L203.001 43z"/>
    <path fill="none" stroke="#232447" stroke-width="5" stroke-miterlimit="10" d="M298.998 43h-42.112"/>
    <path fill="#232447" d="M258.107 52.111V33.888L248.998 43z"/>
</svg>
