<svg xmlns="http://www.w3.org/2000/svg" width="400" height="111.5" viewBox="0 0 400 111.5">
    <path fill="#232447" d="M13.5 14.75h372V46.5h-372z"/>
    <path fill="#4e9bd4" d="M19.864 18.006h115.719v24.966H19.864zm121.686.136h115.719v24.966H141.55zm121.685.136h115.719v24.966H263.235z"/>
    <text transform="matrix(1.0909 0 0 1 72.325 36.5)" fill="#FFF" font-family="'Source Sans Pro'" font-size="16">
        1
    </text>
    <text transform="matrix(1.0909 0 0 1 196.78 36.5)" fill="#FFF" font-family="'Source Sans Pro'" font-size="16">
        1
    </text>
    <text transform="matrix(1.0909 0 0 1 319.096 36.5)" fill="#FFF" font-family="'Source Sans Pro'" font-size="16">
        1
    </text>
    <path fill="#232447" d="M14 62.75h372V94.5H14z"/>
    <path fill="#4e9bd4" d="M20.364 66.006H109.5v24.966H20.364zm94.136.136h175v24.966h-175zm180 .136h84.954v24.966H294.5z"/>
    <text transform="matrix(1.0909 0 0 1 61.825 84.5)" fill="#FFF" font-family="'Source Sans Pro'" font-size="16">
        1
    </text>
    <text transform="matrix(1.0909 0 0 1 195.28 84.5)" fill="#FFF" font-family="'Source Sans Pro'" font-size="16">
        2
    </text>
    <text transform="matrix(1.0909 0 0 1 334.977 84.5)" fill="#FFF" font-family="'Source Sans Pro'" font-size="16">
        1
    </text>
</svg>
