<svg width="99.999997" height="99.99999" xmlns="http://www.w3.org/2000/svg">

 <g>
  <title>background</title>
  <rect fill="none" id="canvas_background" height="402" width="582" y="-1" x="-1"/>
 </g>
 <g>
  <title>Layer 1</title>
  <path id="svg_1" fill="#263238" d="m50,0c-27.614,0 -50,22.385 -50,49.999c0,27.615 22.386,50.001 50,50.001s50,-22.386 50,-50.001c0,-27.614 -22.386,-49.999 -50,-49.999z"/>
  <path id="svg_2" fill="#546e7a" d="m61,76.999l0,6l-6,0l0,-6l-2,0l0,6l-6,0l0,-6l-2,0l0,6l-6,0l0,-6l-2,0l0,8l26,0l0,-8l-2,0z"/>
  <path id="svg_3" fill="#cfd8dc" d="m47.031,8.094c-15.203,1.044 -28.29,10.351 -34.742,23.434l5.424,2.656c5.767,-11.646 17.669,-19.813 31.333,-20.166c0.32,-0.008 0.636,0 0.954,0l0,-6.014c-0.983,0 -1.971,0.021 -2.969,0.09z"/>
  <path id="svg_4" fill="#1976d2" d="m85.985,49.988c0,5.471 -1.437,10.873 -3.686,15.61c-0.689,1.452 -0.172,3.182 1.235,3.976l0.054,0.03c1.564,0.882 3.537,0.234 4.305,-1.381a42.793,42.793 0 0 0 4.107,-18.235a41.775,41.775 0 0 0 -4.807,-19.5l-5.326,2.794a35.804,35.804 0 0 1 4.118,16.706z"/>
  <path id="svg_5" fill="#fff" d="m16.407,69.613l0.054,-0.029a2.937,2.937 0 0 0 1.234,-3.887c-2.439,-5.021 -3.886,-11.12 -3.658,-17.104a35.478,35.478 0 0 1 4.13,-15.293l-5.356,-2.81a41.413,41.413 0 0 0 -4.674,16.029c-0.619,7.668 0.863,15.368 3.965,21.744c0.767,1.578 2.74,2.213 4.305,1.35z"/>
  <path id="svg_6" fill="#90a4ae" d="m50,8.004l0,6.014c14.174,0.001 26.436,8.185 32.301,20.095l5.392,-2.652c-6.847,-13.899 -21.151,-23.454 -37.693,-23.457z"/>
  <path id="svg_7" fill="#1976d2" d="m47.263,48.53a3.106,3.106 0 1 0 5.472,2.94a3.106,3.106 0 0 0 -5.472,-2.94z"/>
  <g transform="rotate(45 59.066658020019545,40.56547546386718) " stroke="null" id="svg_13">
   <path stroke="null" id="svg_11" fill="#ff5722" d="m58.022591,12.457905l2.16175,0.001071l2.14676,56.214055l-6.485249,-0.001071l2.176739,-56.214055z"/>
   <path stroke="null" id="svg_12" fill="#546e7a" d="m54.350079,51.223782a5.353516,5.353516 0 0 0 2.184234,7.24866a5.353516,5.353516 0 0 0 7.24866,-2.182093a5.353516,5.353516 0 0 0 -2.183164,-7.24866a5.353516,5.353516 0 0 0 -7.24866,2.182093l-0.001071,0z"/>
  </g>
 </g>
</svg>