<svg xmlns="http://www.w3.org/2000/svg" width="106.667" height="106.667" viewBox="0 0 99.999997 99.99999">
    <path d="M50 0C22.386 0 0 22.385 0 49.999 0 77.614 22.386 100 50 100s50-22.386 50-50.001C100 22.385 77.614 0 50 0z" fill="#263238"/>
    <path d="M61 76.999v6h-6v-6h-2v6h-6v-6h-2v6h-6v-6h-2v8h26v-8h-2z" fill="#546e7a"/>
    <path d="M47.031 8.094c-15.203 1.044-28.29 10.351-34.742 23.434l5.424 2.656c5.767-11.646 17.669-19.813 31.333-20.166.32-.008.636 0 .954 0V8.004c-.983 0-1.971.021-2.969.09z" fill="#cfd8dc"/>
    <path d="M85.985 49.988c0 5.471-1.437 10.873-3.686 15.61-.689 1.452-.172 3.182 1.235 3.976l.054.03c1.564.882 3.537.234 4.305-1.381A42.793 42.793 0 0 0 92 49.988a41.775 41.775 0 0 0-4.807-19.5l-5.326 2.794a35.804 35.804 0 0 1 4.118 16.706z" fill="#1976d2"/>
    <path d="M16.407 69.613l.054-.029a2.937 2.937 0 0 0 1.234-3.887c-2.439-5.021-3.886-11.12-3.658-17.104a35.478 35.478 0 0 1 4.13-15.293l-5.356-2.81a41.413 41.413 0 0 0-4.674 16.029c-.619 7.668.863 15.368 3.965 21.744.767 1.578 2.74 2.213 4.305 1.35z" fill="#fff"/>
    <path d="M50 8.004v6.014c14.174.001 26.436 8.185 32.301 20.095l5.392-2.652C80.846 17.562 66.542 8.007 50 8.004z" fill="#90a4ae"/>
    <path d="M47.263 48.53a3.106 3.106 0 1 0 5.472 2.94 3.106 3.106 0 0 0-5.472-2.94z" fill="#1976d2"/>
</svg>
