<svg xmlns="http://www.w3.org/2000/svg" width="88.32" height="51.413" viewBox="0 0 82.8 48.2">
    <path d="M73.6 0H9.2c-2 0-3.6 1.6-3.6 3.6v44.5h71.7V3.6c-.1-2-1.7-3.6-3.7-3.6z" class="st0" fill="#263238"/>
    <path d="M73.2 3H9.6c-.7 0-1.2.5-1.2 1.2v37h66v-37c0-.7-.6-1.2-1.2-1.2z" class="st1" fill="#fff"/>
    <path d="M80.5 48.2H2.3c-1.3 0-2.3-1-2.3-2.3v-2.3h82.8v2.3c0 1.3-1 2.3-2.3 2.3z" class="st2" fill="#cfd8dc"/>
    <path d="M49.9 45.4h-17c-.7 0-1.2-.5-1.2-1.2v-.6h19.5v.6c-.1.7-.6 1.2-1.3 1.2z" class="st1" fill="#90a4ae"/>
</svg>
