<svg xmlns="http://www.w3.org/2000/svg" width="56.856" height="101.12" viewBox="0 0 53.302692 94.799988">
    <g transform="translate(-319.063 -427.82)">
        <path d="M366.563 522.62h-41.6c-3.3 0-5.9-2.7-5.9-5.9v-83c0-3.3 2.7-5.9 5.9-5.9h41.5c3.3 0 5.9 2.7 5.9 5.9v83c.1 3.3-2.6 5.9-5.8 5.9z" class="st0" fill="#263238"/>
        <circle cx="345.263" cy="516.666" r="3.7" class="st1" fill="#546e7a"/>
        <path d="M353.082 433.498h-14.553c-.533 0-.888-.355-.888-.887 0-.533.355-.888.888-.888h14.553c.532 0 .887.355.887.888 0 .532-.355.887-.887.887z" class="st1"/>
        <path d="M322.454 437.62h46.719v73.106h-46.72z" class="st2" fill="#fff"/>
    </g>
</svg>
