<svg xmlns="http://www.w3.org/2000/svg" xmlns:xlink="http://www.w3.org/1999/xlink" viewBox="0 0 200 200">
    <defs>
        <path id="a" d="M0 0h8v8H0z"/>
    </defs>
    <use xlink:href="#a" transform="translate(-32 -32)" height="100%" width="100%" y="32" x="32"/>
    <use xlink:href="#a" transform="translate(-32 -32)" height="100%" width="100%" y="40" x="32"/>
    <use xlink:href="#a" transform="translate(-32 -32)" height="100%" width="100%" y="48" x="32"/>
    <use xlink:href="#a" transform="translate(-32 -32)" height="100%" width="100%" y="56" x="32"/>
    <use xlink:href="#a" transform="translate(-32 -32)" height="100%" width="100%" y="64" x="32"/>
    <use xlink:href="#a" transform="translate(-32 -32)" height="100%" width="100%" y="72" x="32"/>
    <use xlink:href="#a" transform="translate(-32 -32)" height="100%" width="100%" y="80" x="32"/>
    <use xlink:href="#a" transform="translate(-32 -32)" height="100%" width="100%" y="96" x="32"/>
    <use xlink:href="#a" transform="translate(-32 -32)" height="100%" width="100%" y="104" x="32"/>
    <use xlink:href="#a" transform="translate(-32 -32)" height="100%" width="100%" y="112" x="32"/>
    <use xlink:href="#a" transform="translate(-32 -32)" height="100%" width="100%" y="120" x="32"/>
    <use xlink:href="#a" transform="translate(-32 -32)" height="100%" width="100%" y="128" x="32"/>
    <use xlink:href="#a" transform="translate(-32 -32)" height="100%" width="100%" y="176" x="32"/>
    <use xlink:href="#a" transform="translate(-32 -32)" height="100%" width="100%" y="184" x="32"/>
    <use xlink:href="#a" transform="translate(-32 -32)" height="100%" width="100%" y="192" x="32"/>
    <use xlink:href="#a" transform="translate(-32 -32)" height="100%" width="100%" y="200" x="32"/>
    <use xlink:href="#a" transform="translate(-32 -32)" height="100%" width="100%" y="208" x="32"/>
    <use xlink:href="#a" transform="translate(-32 -32)" height="100%" width="100%" y="216" x="32"/>
    <use xlink:href="#a" transform="translate(-32 -32)" height="100%" width="100%" y="224" x="32"/>
    <use xlink:href="#a" transform="translate(-32 -32)" height="100%" width="100%" y="32" x="40"/>
    <use xlink:href="#a" transform="translate(-32 -32)" height="100%" width="100%" y="80" x="40"/>
    <use xlink:href="#a" transform="translate(-32 -32)" height="100%" width="100%" y="96" x="40"/>
    <use xlink:href="#a" transform="translate(-32 -32)" height="100%" width="100%" y="112" x="40"/>
    <use xlink:href="#a" transform="translate(-32 -32)" height="100%" width="100%" y="152" x="40"/>
    <use xlink:href="#a" transform="translate(-32 -32)" height="100%" width="100%" y="160" x="40"/>
    <use xlink:href="#a" transform="translate(-32 -32)" height="100%" width="100%" y="176" x="40"/>
    <use xlink:href="#a" transform="translate(-32 -32)" height="100%" width="100%" y="224" x="40"/>
    <use xlink:href="#a" transform="translate(-32 -32)" height="100%" width="100%" y="32" x="48"/>
    <use xlink:href="#a" transform="translate(-32 -32)" height="100%" width="100%" y="48" x="48"/>
    <use xlink:href="#a" transform="translate(-32 -32)" height="100%" width="100%" y="56" x="48"/>
    <use xlink:href="#a" transform="translate(-32 -32)" height="100%" width="100%" y="64" x="48"/>
    <use xlink:href="#a" transform="translate(-32 -32)" height="100%" width="100%" y="80" x="48"/>
    <use xlink:href="#a" transform="translate(-32 -32)" height="100%" width="100%" y="112" x="48"/>
    <use xlink:href="#a" transform="translate(-32 -32)" height="100%" width="100%" y="128" x="48"/>
    <use xlink:href="#a" transform="translate(-32 -32)" height="100%" width="100%" y="144" x="48"/>
    <use xlink:href="#a" transform="translate(-32 -32)" height="100%" width="100%" y="160" x="48"/>
    <use xlink:href="#a" transform="translate(-32 -32)" height="100%" width="100%" y="176" x="48"/>
    <use xlink:href="#a" transform="translate(-32 -32)" height="100%" width="100%" y="192" x="48"/>
    <use xlink:href="#a" transform="translate(-32 -32)" height="100%" width="100%" y="200" x="48"/>
    <use xlink:href="#a" transform="translate(-32 -32)" height="100%" width="100%" y="208" x="48"/>
    <use xlink:href="#a" transform="translate(-32 -32)" height="100%" width="100%" y="224" x="48"/>
    <use xlink:href="#a" transform="translate(-32 -32)" height="100%" width="100%" y="32" x="56"/>
    <use xlink:href="#a" transform="translate(-32 -32)" height="100%" width="100%" y="48" x="56"/>
    <use xlink:href="#a" transform="translate(-32 -32)" height="100%" width="100%" y="56" x="56"/>
    <use xlink:href="#a" transform="translate(-32 -32)" height="100%" width="100%" y="64" x="56"/>
    <use xlink:href="#a" transform="translate(-32 -32)" height="100%" width="100%" y="80" x="56"/>
    <use xlink:href="#a" transform="translate(-32 -32)" height="100%" width="100%" y="96" x="56"/>
    <use xlink:href="#a" transform="translate(-32 -32)" height="100%" width="100%" y="120" x="56"/>
    <use xlink:href="#a" transform="translate(-32 -32)" height="100%" width="100%" y="144" x="56"/>
    <use xlink:href="#a" transform="translate(-32 -32)" height="100%" width="100%" y="152" x="56"/>
    <use xlink:href="#a" transform="translate(-32 -32)" height="100%" width="100%" y="176" x="56"/>
    <use xlink:href="#a" transform="translate(-32 -32)" height="100%" width="100%" y="192" x="56"/>
    <use xlink:href="#a" transform="translate(-32 -32)" height="100%" width="100%" y="200" x="56"/>
    <use xlink:href="#a" transform="translate(-32 -32)" height="100%" width="100%" y="208" x="56"/>
    <use xlink:href="#a" transform="translate(-32 -32)" height="100%" width="100%" y="224" x="56"/>
    <use xlink:href="#a" transform="translate(-32 -32)" height="100%" width="100%" y="32" x="64"/>
    <use xlink:href="#a" transform="translate(-32 -32)" height="100%" width="100%" y="48" x="64"/>
    <use xlink:href="#a" transform="translate(-32 -32)" height="100%" width="100%" y="56" x="64"/>
    <use xlink:href="#a" transform="translate(-32 -32)" height="100%" width="100%" y="64" x="64"/>
    <use xlink:href="#a" transform="translate(-32 -32)" height="100%" width="100%" y="80" x="64"/>
    <use xlink:href="#a" transform="translate(-32 -32)" height="100%" width="100%" y="96" x="64"/>
    <use xlink:href="#a" transform="translate(-32 -32)" height="100%" width="100%" y="112" x="64"/>
    <use xlink:href="#a" transform="translate(-32 -32)" height="100%" width="100%" y="120" x="64"/>
    <use xlink:href="#a" transform="translate(-32 -32)" height="100%" width="100%" y="160" x="64"/>
    <use xlink:href="#a" transform="translate(-32 -32)" height="100%" width="100%" y="176" x="64"/>
    <use xlink:href="#a" transform="translate(-32 -32)" height="100%" width="100%" y="192" x="64"/>
    <use xlink:href="#a" transform="translate(-32 -32)" height="100%" width="100%" y="200" x="64"/>
    <use xlink:href="#a" transform="translate(-32 -32)" height="100%" width="100%" y="208" x="64"/>
    <use xlink:href="#a" transform="translate(-32 -32)" height="100%" width="100%" y="224" x="64"/>
    <use xlink:href="#a" transform="translate(-32 -32)" height="100%" width="100%" y="32" x="72"/>
    <use xlink:href="#a" transform="translate(-32 -32)" height="100%" width="100%" y="80" x="72"/>
    <use xlink:href="#a" transform="translate(-32 -32)" height="100%" width="100%" y="104" x="72"/>
    <use xlink:href="#a" transform="translate(-32 -32)" height="100%" width="100%" y="112" x="72"/>
    <use xlink:href="#a" transform="translate(-32 -32)" height="100%" width="100%" y="120" x="72"/>
    <use xlink:href="#a" transform="translate(-32 -32)" height="100%" width="100%" y="128" x="72"/>
    <use xlink:href="#a" transform="translate(-32 -32)" height="100%" width="100%" y="136" x="72"/>
    <use xlink:href="#a" transform="translate(-32 -32)" height="100%" width="100%" y="144" x="72"/>
    <use xlink:href="#a" transform="translate(-32 -32)" height="100%" width="100%" y="160" x="72"/>
    <use xlink:href="#a" transform="translate(-32 -32)" height="100%" width="100%" y="176" x="72"/>
    <use xlink:href="#a" transform="translate(-32 -32)" height="100%" width="100%" y="224" x="72"/>
    <use xlink:href="#a" transform="translate(-32 -32)" height="100%" width="100%" y="32" x="80"/>
    <use xlink:href="#a" transform="translate(-32 -32)" height="100%" width="100%" y="40" x="80"/>
    <use xlink:href="#a" transform="translate(-32 -32)" height="100%" width="100%" y="48" x="80"/>
    <use xlink:href="#a" transform="translate(-32 -32)" height="100%" width="100%" y="56" x="80"/>
    <use xlink:href="#a" transform="translate(-32 -32)" height="100%" width="100%" y="64" x="80"/>
    <use xlink:href="#a" transform="translate(-32 -32)" height="100%" width="100%" y="72" x="80"/>
    <use xlink:href="#a" transform="translate(-32 -32)" height="100%" width="100%" y="80" x="80"/>
    <use xlink:href="#a" transform="translate(-32 -32)" height="100%" width="100%" y="96" x="80"/>
    <use xlink:href="#a" transform="translate(-32 -32)" height="100%" width="100%" y="112" x="80"/>
    <use xlink:href="#a" transform="translate(-32 -32)" height="100%" width="100%" y="128" x="80"/>
    <use xlink:href="#a" transform="translate(-32 -32)" height="100%" width="100%" y="144" x="80"/>
    <use xlink:href="#a" transform="translate(-32 -32)" height="100%" width="100%" y="160" x="80"/>
    <use xlink:href="#a" transform="translate(-32 -32)" height="100%" width="100%" y="176" x="80"/>
    <use xlink:href="#a" transform="translate(-32 -32)" height="100%" width="100%" y="184" x="80"/>
    <use xlink:href="#a" transform="translate(-32 -32)" height="100%" width="100%" y="192" x="80"/>
    <use xlink:href="#a" transform="translate(-32 -32)" height="100%" width="100%" y="200" x="80"/>
    <use xlink:href="#a" transform="translate(-32 -32)" height="100%" width="100%" y="208" x="80"/>
    <use xlink:href="#a" transform="translate(-32 -32)" height="100%" width="100%" y="216" x="80"/>
    <use xlink:href="#a" transform="translate(-32 -32)" height="100%" width="100%" y="224" x="80"/>
    <use xlink:href="#a" transform="translate(-32 -32)" height="100%" width="100%" y="120" x="88"/>
    <use xlink:href="#a" transform="translate(-32 -32)" height="100%" width="100%" y="136" x="88"/>
    <use xlink:href="#a" transform="translate(-32 -32)" height="100%" width="100%" y="160" x="88"/>
    <use xlink:href="#a" transform="translate(-32 -32)" height="100%" width="100%" y="32" x="96"/>
    <use xlink:href="#a" transform="translate(-32 -32)" height="100%" width="100%" y="80" x="96"/>
    <use xlink:href="#a" transform="translate(-32 -32)" height="100%" width="100%" y="88" x="96"/>
    <use xlink:href="#a" transform="translate(-32 -32)" height="100%" width="100%" y="104" x="96"/>
    <use xlink:href="#a" transform="translate(-32 -32)" height="100%" width="100%" y="112" x="96"/>
    <use xlink:href="#a" transform="translate(-32 -32)" height="100%" width="100%" y="128" x="96"/>
    <use xlink:href="#a" transform="translate(-32 -32)" height="100%" width="100%" y="144" x="96"/>
    <use xlink:href="#a" transform="translate(-32 -32)" height="100%" width="100%" y="160" x="96"/>
    <use xlink:href="#a" transform="translate(-32 -32)" height="100%" width="100%" y="168" x="96"/>
    <use xlink:href="#a" transform="translate(-32 -32)" height="100%" width="100%" y="192" x="96"/>
    <use xlink:href="#a" transform="translate(-32 -32)" height="100%" width="100%" y="200" x="96"/>
    <use xlink:href="#a" transform="translate(-32 -32)" height="100%" width="100%" y="216" x="96"/>
    <use xlink:href="#a" transform="translate(-32 -32)" height="100%" width="100%" y="224" x="96"/>
    <use xlink:href="#a" transform="translate(-32 -32)" height="100%" width="100%" y="32" x="104"/>
    <use xlink:href="#a" transform="translate(-32 -32)" height="100%" width="100%" y="48" x="104"/>
    <use xlink:href="#a" transform="translate(-32 -32)" height="100%" width="100%" y="72" x="104"/>
    <use xlink:href="#a" transform="translate(-32 -32)" height="100%" width="100%" y="88" x="104"/>
    <use xlink:href="#a" transform="translate(-32 -32)" height="100%" width="100%" y="96" x="104"/>
    <use xlink:href="#a" transform="translate(-32 -32)" height="100%" width="100%" y="112" x="104"/>
    <use xlink:href="#a" transform="translate(-32 -32)" height="100%" width="100%" y="128" x="104"/>
    <use xlink:href="#a" transform="translate(-32 -32)" height="100%" width="100%" y="136" x="104"/>
    <use xlink:href="#a" transform="translate(-32 -32)" height="100%" width="100%" y="152" x="104"/>
    <use xlink:href="#a" transform="translate(-32 -32)" height="100%" width="100%" y="168" x="104"/>
    <use xlink:href="#a" transform="translate(-32 -32)" height="100%" width="100%" y="184" x="104"/>
    <use xlink:href="#a" transform="translate(-32 -32)" height="100%" width="100%" y="192" x="104"/>
    <use xlink:href="#a" transform="translate(-32 -32)" height="100%" width="100%" y="200" x="104"/>
    <use xlink:href="#a" transform="translate(-32 -32)" height="100%" width="100%" y="208" x="104"/>
    <use xlink:href="#a" transform="translate(-32 -32)" height="100%" width="100%" y="216" x="104"/>
    <use xlink:href="#a" transform="translate(-32 -32)" height="100%" width="100%" y="32" x="112"/>
    <use xlink:href="#a" transform="translate(-32 -32)" height="100%" width="100%" y="56" x="112"/>
    <use xlink:href="#a" transform="translate(-32 -32)" height="100%" width="100%" y="64" x="112"/>
    <use xlink:href="#a" transform="translate(-32 -32)" height="100%" width="100%" y="80" x="112"/>
    <use xlink:href="#a" transform="translate(-32 -32)" height="100%" width="100%" y="104" x="112"/>
    <use xlink:href="#a" transform="translate(-32 -32)" height="100%" width="100%" y="128" x="112"/>
    <use xlink:href="#a" transform="translate(-32 -32)" height="100%" width="100%" y="136" x="112"/>
    <use xlink:href="#a" transform="translate(-32 -32)" height="100%" width="100%" y="144" x="112"/>
    <use xlink:href="#a" transform="translate(-32 -32)" height="100%" width="100%" y="152" x="112"/>
    <use xlink:href="#a" transform="translate(-32 -32)" height="100%" width="100%" y="176" x="112"/>
    <use xlink:href="#a" transform="translate(-32 -32)" height="100%" width="100%" y="184" x="112"/>
    <use xlink:href="#a" transform="translate(-32 -32)" height="100%" width="100%" y="216" x="112"/>
    <use xlink:href="#a" transform="translate(-32 -32)" height="100%" width="100%" y="32" x="120"/>
    <use xlink:href="#a" transform="translate(-32 -32)" height="100%" width="100%" y="40" x="120"/>
    <use xlink:href="#a" transform="translate(-32 -32)" height="100%" width="100%" y="48" x="120"/>
    <use xlink:href="#a" transform="translate(-32 -32)" height="100%" width="100%" y="56" x="120"/>
    <use xlink:href="#a" transform="translate(-32 -32)" height="100%" width="100%" y="64" x="120"/>
    <use xlink:href="#a" transform="translate(-32 -32)" height="100%" width="100%" y="72" x="120"/>
    <use xlink:href="#a" transform="translate(-32 -32)" height="100%" width="100%" y="88" x="120"/>
    <use xlink:href="#a" transform="translate(-32 -32)" height="100%" width="100%" y="96" x="120"/>
    <use xlink:href="#a" transform="translate(-32 -32)" height="100%" width="100%" y="104" x="120"/>
    <use xlink:href="#a" transform="translate(-32 -32)" height="100%" width="100%" y="112" x="120"/>
    <use xlink:href="#a" transform="translate(-32 -32)" height="100%" width="100%" y="128" x="120"/>
    <use xlink:href="#a" transform="translate(-32 -32)" height="100%" width="100%" y="136" x="120"/>
    <use xlink:href="#a" transform="translate(-32 -32)" height="100%" width="100%" y="152" x="120"/>
    <use xlink:href="#a" transform="translate(-32 -32)" height="100%" width="100%" y="160" x="120"/>
    <use xlink:href="#a" transform="translate(-32 -32)" height="100%" width="100%" y="176" x="120"/>
    <use xlink:href="#a" transform="translate(-32 -32)" height="100%" width="100%" y="184" x="120"/>
    <use xlink:href="#a" transform="translate(-32 -32)" height="100%" width="100%" y="192" x="120"/>
    <use xlink:href="#a" transform="translate(-32 -32)" height="100%" width="100%" y="200" x="120"/>
    <use xlink:href="#a" transform="translate(-32 -32)" height="100%" width="100%" y="208" x="120"/>
    <use xlink:href="#a" transform="translate(-32 -32)" height="100%" width="100%" y="40" x="128"/>
    <use xlink:href="#a" transform="translate(-32 -32)" height="100%" width="100%" y="56" x="128"/>
    <use xlink:href="#a" transform="translate(-32 -32)" height="100%" width="100%" y="64" x="128"/>
    <use xlink:href="#a" transform="translate(-32 -32)" height="100%" width="100%" y="80" x="128"/>
    <use xlink:href="#a" transform="translate(-32 -32)" height="100%" width="100%" y="96" x="128"/>
    <use xlink:href="#a" transform="translate(-32 -32)" height="100%" width="100%" y="104" x="128"/>
    <use xlink:href="#a" transform="translate(-32 -32)" height="100%" width="100%" y="128" x="128"/>
    <use xlink:href="#a" transform="translate(-32 -32)" height="100%" width="100%" y="144" x="128"/>
    <use xlink:href="#a" transform="translate(-32 -32)" height="100%" width="100%" y="152" x="128"/>
    <use xlink:href="#a" transform="translate(-32 -32)" height="100%" width="100%" y="192" x="128"/>
    <use xlink:href="#a" transform="translate(-32 -32)" height="100%" width="100%" y="208" x="128"/>
    <use xlink:href="#a" transform="translate(-32 -32)" height="100%" width="100%" y="224" x="128"/>
    <use xlink:href="#a" transform="translate(-32 -32)" height="100%" width="100%" y="40" x="136"/>
    <use xlink:href="#a" transform="translate(-32 -32)" height="100%" width="100%" y="48" x="136"/>
    <use xlink:href="#a" transform="translate(-32 -32)" height="100%" width="100%" y="56" x="136"/>
    <use xlink:href="#a" transform="translate(-32 -32)" height="100%" width="100%" y="88" x="136"/>
    <use xlink:href="#a" transform="translate(-32 -32)" height="100%" width="100%" y="112" x="136"/>
    <use xlink:href="#a" transform="translate(-32 -32)" height="100%" width="100%" y="160" x="136"/>
    <use xlink:href="#a" transform="translate(-32 -32)" height="100%" width="100%" y="184" x="136"/>
    <use xlink:href="#a" transform="translate(-32 -32)" height="100%" width="100%" y="200" x="136"/>
    <use xlink:href="#a" transform="translate(-32 -32)" height="100%" width="100%" y="208" x="136"/>
    <use xlink:href="#a" transform="translate(-32 -32)" height="100%" width="100%" y="32" x="144"/>
    <use xlink:href="#a" transform="translate(-32 -32)" height="100%" width="100%" y="48" x="144"/>
    <use xlink:href="#a" transform="translate(-32 -32)" height="100%" width="100%" y="64" x="144"/>
    <use xlink:href="#a" transform="translate(-32 -32)" height="100%" width="100%" y="72" x="144"/>
    <use xlink:href="#a" transform="translate(-32 -32)" height="100%" width="100%" y="80" x="144"/>
    <use xlink:href="#a" transform="translate(-32 -32)" height="100%" width="100%" y="96" x="144"/>
    <use xlink:href="#a" transform="translate(-32 -32)" height="100%" width="100%" y="120" x="144"/>
    <use xlink:href="#a" transform="translate(-32 -32)" height="100%" width="100%" y="136" x="144"/>
    <use xlink:href="#a" transform="translate(-32 -32)" height="100%" width="100%" y="144" x="144"/>
    <use xlink:href="#a" transform="translate(-32 -32)" height="100%" width="100%" y="168" x="144"/>
    <use xlink:href="#a" transform="translate(-32 -32)" height="100%" width="100%" y="176" x="144"/>
    <use xlink:href="#a" transform="translate(-32 -32)" height="100%" width="100%" y="184" x="144"/>
    <use xlink:href="#a" transform="translate(-32 -32)" height="100%" width="100%" y="192" x="144"/>
    <use xlink:href="#a" transform="translate(-32 -32)" height="100%" width="100%" y="200" x="144"/>
    <use xlink:href="#a" transform="translate(-32 -32)" height="100%" width="100%" y="208" x="144"/>
    <use xlink:href="#a" transform="translate(-32 -32)" height="100%" width="100%" y="216" x="144"/>
    <use xlink:href="#a" transform="translate(-32 -32)" height="100%" width="100%" y="224" x="144"/>
    <use xlink:href="#a" transform="translate(-32 -32)" height="100%" width="100%" y="48" x="152"/>
    <use xlink:href="#a" transform="translate(-32 -32)" height="100%" width="100%" y="88" x="152"/>
    <use xlink:href="#a" transform="translate(-32 -32)" height="100%" width="100%" y="96" x="152"/>
    <use xlink:href="#a" transform="translate(-32 -32)" height="100%" width="100%" y="104" x="152"/>
    <use xlink:href="#a" transform="translate(-32 -32)" height="100%" width="100%" y="112" x="152"/>
    <use xlink:href="#a" transform="translate(-32 -32)" height="100%" width="100%" y="120" x="152"/>
    <use xlink:href="#a" transform="translate(-32 -32)" height="100%" width="100%" y="128" x="152"/>
    <use xlink:href="#a" transform="translate(-32 -32)" height="100%" width="100%" y="136" x="152"/>
    <use xlink:href="#a" transform="translate(-32 -32)" height="100%" width="100%" y="144" x="152"/>
    <use xlink:href="#a" transform="translate(-32 -32)" height="100%" width="100%" y="192" x="152"/>
    <use xlink:href="#a" transform="translate(-32 -32)" height="100%" width="100%" y="208" x="152"/>
    <use xlink:href="#a" transform="translate(-32 -32)" height="100%" width="100%" y="216" x="152"/>
    <use xlink:href="#a" transform="translate(-32 -32)" height="100%" width="100%" y="40" x="160"/>
    <use xlink:href="#a" transform="translate(-32 -32)" height="100%" width="100%" y="48" x="160"/>
    <use xlink:href="#a" transform="translate(-32 -32)" height="100%" width="100%" y="56" x="160"/>
    <use xlink:href="#a" transform="translate(-32 -32)" height="100%" width="100%" y="64" x="160"/>
    <use xlink:href="#a" transform="translate(-32 -32)" height="100%" width="100%" y="72" x="160"/>
    <use xlink:href="#a" transform="translate(-32 -32)" height="100%" width="100%" y="80" x="160"/>
    <use xlink:href="#a" transform="translate(-32 -32)" height="100%" width="100%" y="128" x="160"/>
    <use xlink:href="#a" transform="translate(-32 -32)" height="100%" width="100%" y="136" x="160"/>
    <use xlink:href="#a" transform="translate(-32 -32)" height="100%" width="100%" y="160" x="160"/>
    <use xlink:href="#a" transform="translate(-32 -32)" height="100%" width="100%" y="168" x="160"/>
    <use xlink:href="#a" transform="translate(-32 -32)" height="100%" width="100%" y="176" x="160"/>
    <use xlink:href="#a" transform="translate(-32 -32)" height="100%" width="100%" y="184" x="160"/>
    <use xlink:href="#a" transform="translate(-32 -32)" height="100%" width="100%" y="192" x="160"/>
    <use xlink:href="#a" transform="translate(-32 -32)" height="100%" width="100%" y="224" x="160"/>
    <use xlink:href="#a" transform="translate(-32 -32)" height="100%" width="100%" y="112" x="168"/>
    <use xlink:href="#a" transform="translate(-32 -32)" height="100%" width="100%" y="136" x="168"/>
    <use xlink:href="#a" transform="translate(-32 -32)" height="100%" width="100%" y="152" x="168"/>
    <use xlink:href="#a" transform="translate(-32 -32)" height="100%" width="100%" y="160" x="168"/>
    <use xlink:href="#a" transform="translate(-32 -32)" height="100%" width="100%" y="192" x="168"/>
    <use xlink:href="#a" transform="translate(-32 -32)" height="100%" width="100%" y="200" x="168"/>
    <use xlink:href="#a" transform="translate(-32 -32)" height="100%" width="100%" y="208" x="168"/>
    <use xlink:href="#a" transform="translate(-32 -32)" height="100%" width="100%" y="216" x="168"/>
    <use xlink:href="#a" transform="translate(-32 -32)" height="100%" width="100%" y="32" x="176"/>
    <use xlink:href="#a" transform="translate(-32 -32)" height="100%" width="100%" y="40" x="176"/>
    <use xlink:href="#a" transform="translate(-32 -32)" height="100%" width="100%" y="48" x="176"/>
    <use xlink:href="#a" transform="translate(-32 -32)" height="100%" width="100%" y="56" x="176"/>
    <use xlink:href="#a" transform="translate(-32 -32)" height="100%" width="100%" y="64" x="176"/>
    <use xlink:href="#a" transform="translate(-32 -32)" height="100%" width="100%" y="72" x="176"/>
    <use xlink:href="#a" transform="translate(-32 -32)" height="100%" width="100%" y="80" x="176"/>
    <use xlink:href="#a" transform="translate(-32 -32)" height="100%" width="100%" y="96" x="176"/>
    <use xlink:href="#a" transform="translate(-32 -32)" height="100%" width="100%" y="112" x="176"/>
    <use xlink:href="#a" transform="translate(-32 -32)" height="100%" width="100%" y="120" x="176"/>
    <use xlink:href="#a" transform="translate(-32 -32)" height="100%" width="100%" y="128" x="176"/>
    <use xlink:href="#a" transform="translate(-32 -32)" height="100%" width="100%" y="144" x="176"/>
    <use xlink:href="#a" transform="translate(-32 -32)" height="100%" width="100%" y="160" x="176"/>
    <use xlink:href="#a" transform="translate(-32 -32)" height="100%" width="100%" y="176" x="176"/>
    <use xlink:href="#a" transform="translate(-32 -32)" height="100%" width="100%" y="192" x="176"/>
    <use xlink:href="#a" transform="translate(-32 -32)" height="100%" width="100%" y="200" x="176"/>
    <use xlink:href="#a" transform="translate(-32 -32)" height="100%" width="100%" y="216" x="176"/>
    <use xlink:href="#a" transform="translate(-32 -32)" height="100%" width="100%" y="224" x="176"/>
    <use xlink:href="#a" transform="translate(-32 -32)" height="100%" width="100%" y="32" x="184"/>
    <use xlink:href="#a" transform="translate(-32 -32)" height="100%" width="100%" y="80" x="184"/>
    <use xlink:href="#a" transform="translate(-32 -32)" height="100%" width="100%" y="104" x="184"/>
    <use xlink:href="#a" transform="translate(-32 -32)" height="100%" width="100%" y="112" x="184"/>
    <use xlink:href="#a" transform="translate(-32 -32)" height="100%" width="100%" y="120" x="184"/>
    <use xlink:href="#a" transform="translate(-32 -32)" height="100%" width="100%" y="160" x="184"/>
    <use xlink:href="#a" transform="translate(-32 -32)" height="100%" width="100%" y="192" x="184"/>
    <use xlink:href="#a" transform="translate(-32 -32)" height="100%" width="100%" y="200" x="184"/>
    <use xlink:href="#a" transform="translate(-32 -32)" height="100%" width="100%" y="208" x="184"/>
    <use xlink:href="#a" transform="translate(-32 -32)" height="100%" width="100%" y="216" x="184"/>
    <use xlink:href="#a" transform="translate(-32 -32)" height="100%" width="100%" y="32" x="192"/>
    <use xlink:href="#a" transform="translate(-32 -32)" height="100%" width="100%" y="48" x="192"/>
    <use xlink:href="#a" transform="translate(-32 -32)" height="100%" width="100%" y="56" x="192"/>
    <use xlink:href="#a" transform="translate(-32 -32)" height="100%" width="100%" y="64" x="192"/>
    <use xlink:href="#a" transform="translate(-32 -32)" height="100%" width="100%" y="80" x="192"/>
    <use xlink:href="#a" transform="translate(-32 -32)" height="100%" width="100%" y="104" x="192"/>
    <use xlink:href="#a" transform="translate(-32 -32)" height="100%" width="100%" y="112" x="192"/>
    <use xlink:href="#a" transform="translate(-32 -32)" height="100%" width="100%" y="136" x="192"/>
    <use xlink:href="#a" transform="translate(-32 -32)" height="100%" width="100%" y="152" x="192"/>
    <use xlink:href="#a" transform="translate(-32 -32)" height="100%" width="100%" y="160" x="192"/>
    <use xlink:href="#a" transform="translate(-32 -32)" height="100%" width="100%" y="168" x="192"/>
    <use xlink:href="#a" transform="translate(-32 -32)" height="100%" width="100%" y="176" x="192"/>
    <use xlink:href="#a" transform="translate(-32 -32)" height="100%" width="100%" y="184" x="192"/>
    <use xlink:href="#a" transform="translate(-32 -32)" height="100%" width="100%" y="192" x="192"/>
    <use xlink:href="#a" transform="translate(-32 -32)" height="100%" width="100%" y="208" x="192"/>
    <use xlink:href="#a" transform="translate(-32 -32)" height="100%" width="100%" y="216" x="192"/>
    <use xlink:href="#a" transform="translate(-32 -32)" height="100%" width="100%" y="32" x="200"/>
    <use xlink:href="#a" transform="translate(-32 -32)" height="100%" width="100%" y="48" x="200"/>
    <use xlink:href="#a" transform="translate(-32 -32)" height="100%" width="100%" y="56" x="200"/>
    <use xlink:href="#a" transform="translate(-32 -32)" height="100%" width="100%" y="64" x="200"/>
    <use xlink:href="#a" transform="translate(-32 -32)" height="100%" width="100%" y="80" x="200"/>
    <use xlink:href="#a" transform="translate(-32 -32)" height="100%" width="100%" y="104" x="200"/>
    <use xlink:href="#a" transform="translate(-32 -32)" height="100%" width="100%" y="112" x="200"/>
    <use xlink:href="#a" transform="translate(-32 -32)" height="100%" width="100%" y="120" x="200"/>
    <use xlink:href="#a" transform="translate(-32 -32)" height="100%" width="100%" y="144" x="200"/>
    <use xlink:href="#a" transform="translate(-32 -32)" height="100%" width="100%" y="176" x="200"/>
    <use xlink:href="#a" transform="translate(-32 -32)" height="100%" width="100%" y="192" x="200"/>
    <use xlink:href="#a" transform="translate(-32 -32)" height="100%" width="100%" y="200" x="200"/>
    <use xlink:href="#a" transform="translate(-32 -32)" height="100%" width="100%" y="224" x="200"/>
    <use xlink:href="#a" transform="translate(-32 -32)" height="100%" width="100%" y="32" x="208"/>
    <use xlink:href="#a" transform="translate(-32 -32)" height="100%" width="100%" y="48" x="208"/>
    <use xlink:href="#a" transform="translate(-32 -32)" height="100%" width="100%" y="56" x="208"/>
    <use xlink:href="#a" transform="translate(-32 -32)" height="100%" width="100%" y="64" x="208"/>
    <use xlink:href="#a" transform="translate(-32 -32)" height="100%" width="100%" y="80" x="208"/>
    <use xlink:href="#a" transform="translate(-32 -32)" height="100%" width="100%" y="104" x="208"/>
    <use xlink:href="#a" transform="translate(-32 -32)" height="100%" width="100%" y="120" x="208"/>
    <use xlink:href="#a" transform="translate(-32 -32)" height="100%" width="100%" y="144" x="208"/>
    <use xlink:href="#a" transform="translate(-32 -32)" height="100%" width="100%" y="152" x="208"/>
    <use xlink:href="#a" transform="translate(-32 -32)" height="100%" width="100%" y="160" x="208"/>
    <use xlink:href="#a" transform="translate(-32 -32)" height="100%" width="100%" y="208" x="208"/>
    <use xlink:href="#a" transform="translate(-32 -32)" height="100%" width="100%" y="216" x="208"/>
    <use xlink:href="#a" transform="translate(-32 -32)" height="100%" width="100%" y="32" x="216"/>
    <use xlink:href="#a" transform="translate(-32 -32)" height="100%" width="100%" y="80" x="216"/>
    <use xlink:href="#a" transform="translate(-32 -32)" height="100%" width="100%" y="104" x="216"/>
    <use xlink:href="#a" transform="translate(-32 -32)" height="100%" width="100%" y="120" x="216"/>
    <use xlink:href="#a" transform="translate(-32 -32)" height="100%" width="100%" y="136" x="216"/>
    <use xlink:href="#a" transform="translate(-32 -32)" height="100%" width="100%" y="144" x="216"/>
    <use xlink:href="#a" transform="translate(-32 -32)" height="100%" width="100%" y="160" x="216"/>
    <use xlink:href="#a" transform="translate(-32 -32)" height="100%" width="100%" y="168" x="216"/>
    <use xlink:href="#a" transform="translate(-32 -32)" height="100%" width="100%" y="192" x="216"/>
    <use xlink:href="#a" transform="translate(-32 -32)" height="100%" width="100%" y="200" x="216"/>
    <use xlink:href="#a" transform="translate(-32 -32)" height="100%" width="100%" y="208" x="216"/>
    <use xlink:href="#a" transform="translate(-32 -32)" height="100%" width="100%" y="216" x="216"/>
    <use xlink:href="#a" transform="translate(-32 -32)" height="100%" width="100%" y="32" x="224"/>
    <use xlink:href="#a" transform="translate(-32 -32)" height="100%" width="100%" y="40" x="224"/>
    <use xlink:href="#a" transform="translate(-32 -32)" height="100%" width="100%" y="48" x="224"/>
    <use xlink:href="#a" transform="translate(-32 -32)" height="100%" width="100%" y="56" x="224"/>
    <use xlink:href="#a" transform="translate(-32 -32)" height="100%" width="100%" y="64" x="224"/>
    <use xlink:href="#a" transform="translate(-32 -32)" height="100%" width="100%" y="72" x="224"/>
    <use xlink:href="#a" transform="translate(-32 -32)" height="100%" width="100%" y="80" x="224"/>
    <use xlink:href="#a" transform="translate(-32 -32)" height="100%" width="100%" y="96" x="224"/>
    <use xlink:href="#a" transform="translate(-32 -32)" height="100%" width="100%" y="112" x="224"/>
    <use xlink:href="#a" transform="translate(-32 -32)" height="100%" width="100%" y="120" x="224"/>
    <use xlink:href="#a" transform="translate(-32 -32)" height="100%" width="100%" y="128" x="224"/>
    <use xlink:href="#a" transform="translate(-32 -32)" height="100%" width="100%" y="144" x="224"/>
    <use xlink:href="#a" transform="translate(-32 -32)" height="100%" width="100%" y="152" x="224"/>
    <use xlink:href="#a" transform="translate(-32 -32)" height="100%" width="100%" y="176" x="224"/>
    <use xlink:href="#a" transform="translate(-32 -32)" height="100%" width="100%" y="184" x="224"/>
    <use xlink:href="#a" transform="translate(-32 -32)" height="100%" width="100%" y="200" x="224"/>
    <use xlink:href="#a" transform="translate(-32 -32)" height="100%" width="100%" y="208" x="224"/>
    <use xlink:href="#a" transform="translate(-32 -32)" height="100%" width="100%" y="216" x="224"/>
    <use xlink:href="#a" transform="translate(-32 -32)" height="100%" width="100%" y="224" x="224"/>
</svg>
