<svg xmlns="http://www.w3.org/2000/svg" width="54.558" height="76.786" viewBox="0 0 51.148133 71.98705">
    <g transform="translate(-457.283 -493.512)">
        <path class="st0" d="M485.015 540.373c6.994-3.884 15.968-2.347 23.416 3.24-.368-2.312-1.048-4.565-2.213-6.664-5.388-9.704-17.576-13.116-27.368-7.68-9.792 5.437-13.292 17.674-7.952 27.291 1.165 2.098 2.767 3.954 4.486 5.402-.804-9.276 2.636-17.706 9.63-21.59z" fill="#1976d2"/>
        <path class="st2" d="M498.242 550.14c1.225 4.258.739 15.359.739 15.359s-9.6-5.311-12.648-8.749c-3.129-3.582-4.499-7.761-3.514-10.779.76-3.08 1.486-6.904 1.889-6.177-.403-.727 3.227.678 6.244 1.663 2.937.84 5.904 4.131 7.291 8.682z" fill="#e8ab2e"/>
        <path class="st0" d="M494.293 551.951c1.08 2.63 2.176 9.052 2.176 9.052s-4.872-4.325-6.533-6.633c-1.742-2.453-2.822-5.083-2.822-6.793.002-1.71-.24-3.856.002-3.42-.242-.436 1.597.823 2.903 1.807 1.452.904 3.033 3.067 4.274 5.987z" fill="#ff5722"/>
        <path class="st3" d="M474.05 501.052c-4.963-3.993-15.054-7.54-15.054-7.54s-2.324 10.44-1.558 16.763c.678 6.372 5.85 22.487 23.66 36.847l11.716-6.505c-2.772-22.709-13.715-35.62-18.765-39.565z" fill="#cfd8dc"/>
        <path class="st4" d="M476.05 502.801c-2.167.631-5.683 2.126-9.53 4.262-3.847 2.136-6.975 4.33-8.655 5.835a23.032 23.032 0 0 1-.427-2.623c-.717-6.235 1.558-16.763 1.558-16.763s10.003 3.596 15.053 7.54a23.03 23.03 0 0 1 2 1.75z" fill="#ff5722"/>
        <circle transform="rotate(-29.04)" r="5.5" cx="161.731" cy="680.974" class="st5" fill="#42a5f5"/>
    </g>
</svg>
