<svg xmlns="http://www.w3.org/2000/svg" viewBox="0 0 432.552 512.00098" height="512" width="432.55">
    <path d="M44.138 70.621v26.482h388.41V44.138H44.138v8.828z" fill="#42a5f5"/>
    <path d="M203.393 497.9zm17.3 14.1zm-17.66-220.69z" fill="#707384"/>
    <path fill="#ff5722" d="M206.693 264.83a8.829 8.829 0 0 0 0 17.656 8.829 8.829 0 0 1 8.828 8.828v203.03c0 9.75 7.905 17.655 17.655 17.655h8.828c9.751 0 17.655-7.904 17.655-17.655v-203.04a8.829 8.829 0 0 1 8.828-8.828 8.829 8.829 0 0 0 0-17.656h-61.794z"/>
    <path d="M195.983 282.66zm7.41 215.24c1.411 6.895 6.842 12.328 13.738 13.738a17.675 17.675 0 0 1-13.738-13.738zm-7.41-215.24zm-10.13-6.16zm-.18-.63z" fill="#707384"/>
    <path fill="#b3e5fc" d="M432.55 26.483c0-2.285-.289-4.503-.834-6.618a26.328 26.328 0 0 0-3.688-8.189 26.607 26.607 0 0 0-9.338-8.479A26.384 26.384 0 0 0 406.075 0H70.625c-2.285 0-4.503.289-6.618.834a26.31 26.31 0 0 0-8.189 3.688 26.635 26.635 0 0 0-8.48 9.337c-1.02 1.876-1.818 3.89-2.362 6.005s-.833 4.333-.833 6.618v17.655h388.41V26.483z"/>
    <path fill="#1976d2" d="M70.62 123.59h335.45a26.36 26.36 0 0 0 14.807-4.523 26.619 26.619 0 0 0 3.919-3.234 26.4 26.4 0 0 0 7.756-18.726H44.142c0 14.627 11.856 26.483 26.482 26.483z"/>
    <path fill="#90a4ae" d="M26.482 56.707V77.51c4.107-3.703 9.326-6.196 15.124-6.764l.038-.003a26.017 26.017 0 0 1 2.494-.121V52.966c-6.284 0-12.239 1.363-17.656 3.741zm15.162 14.035l-.038.003c.012-.002.026-.002.038-.003zm2.494-17.776C19.801 52.966 0 72.767 0 97.104v44.138c0 24.337 19.801 44.138 44.138 44.138h158.9c14.603 0 26.483 11.88 26.483 26.483v52.966h17.655v-52.966c0-24.337-19.801-44.138-44.138-44.138h-158.9c-14.603 0-26.483-11.88-26.483-26.483V97.103c0-7.826 3.414-14.866 8.828-19.719V56.706c5.416-2.377 11.371-3.74 17.655-3.74z"/>
    <circle cx="333.83" cy="38.781" r="18.169" fill="#b3e5fc"/>
    <circle cy="92.476" cx="161.9" r="18.169" fill="#42a5f5"/>
</svg>
